<svg id="Capa_1" enable-background="new 0 0 512 512" height="512" viewBox="0 0 512 512" width="512" xmlns="http://www.w3.org/2000/svg"><g><g><path d="m319.043 397.019v83.972c0 12.983-10.525 23.509-23.509 23.509h-39.242c-12.984 0-23.509-10.525-23.509-23.509s10.525-23.509 23.509-23.509h15.733v-60.463z" fill="#ff63ed"/></g><path d="m405.229 169.925v159.923c0 37.099-30.073 67.172-67.172 67.172h-59.045c37.099 0 67.172-30.073 67.172-67.172v-159.923z" fill="#7181ff"/><path d="m173.942 397.019c-3.863 0-7.644-.344-11.329-.97v61.433h-15.733c-12.983 0-23.509 10.525-23.509 23.509s10.525 23.509 23.509 23.509h39.242c12.983 0 23.509-10.525 23.509-23.509v-83.972z" fill="#ff63ed"/><path d="m346.184 169.925v159.923c0 37.099-30.073 67.172-67.172 67.172h-105.07c-37.099 0-67.172-30.073-67.172-67.172v-159.923z" fill="#a4bcff"/><g><g><path d="m295.534 512h-39.242c-17.099 0-31.009-13.911-31.009-31.009s13.91-31.009 31.009-31.009h8.233v-52.963c0-4.142 3.357-7.5 7.5-7.5s7.5 3.358 7.5 7.5v60.463c0 4.142-3.357 7.5-7.5 7.5h-15.733c-8.827 0-16.009 7.182-16.009 16.009s7.182 16.009 16.009 16.009h39.242c8.827 0 16.009-7.182 16.009-16.009v-83.972c0-4.142 3.357-7.5 7.5-7.5s7.5 3.358 7.5 7.5v83.972c0 17.098-13.91 31.009-31.009 31.009z" fill="#e207b9"/></g></g><path d="m272.025 397.019h47.018v31.415h-47.018z" fill="#e207b9"/><path d="m173.942 397.019c-3.863 0-7.644-.344-11.329-.97v32.385h47.018v-31.415z" fill="#e207b9"/><g><path d="m186.121 512h-39.241c-17.099 0-31.01-13.911-31.01-31.009s13.911-31.009 31.01-31.009h8.232v-53.933c0-4.142 3.357-7.5 7.5-7.5s7.5 3.358 7.5 7.5v61.433c0 4.142-3.357 7.5-7.5 7.5h-15.732c-8.828 0-16.01 7.182-16.01 16.009s7.182 16.009 16.01 16.009h39.241c8.827 0 16.009-7.182 16.009-16.009v-83.972c0-4.142 3.357-7.5 7.5-7.5s7.5 3.358 7.5 7.5v83.972c0 17.098-13.91 31.009-31.009 31.009z" fill="#e207b9"/></g><path d="m405.229 162.425c-4.143 0-7.5 3.358-7.5 7.5v159.923c0 32.903-26.769 59.671-59.672 59.671h-14.202c18.394-13.86 29.828-35.694 29.828-59.671v-159.923c0-4.142-3.357-7.5-7.5-7.5s-7.5 3.358-7.5 7.5v159.923c0 32.903-26.769 59.671-59.671 59.671h-105.071c-32.902 0-59.671-26.769-59.671-59.671v-159.923c0-4.142-3.357-7.5-7.5-7.5s-7.5 3.358-7.5 7.5v159.923c0 41.174 33.497 74.671 74.671 74.671h164.116c41.174 0 74.672-33.497 74.672-74.671v-159.923c0-4.142-3.357-7.5-7.5-7.5z" fill="#2115c2"/><path d="m405.229 74.671v95.253h-59.045v-95.253c0-37.098-30.073-67.172-67.172-67.172h59.045c37.099.001 67.172 30.074 67.172 67.172z" fill="#ff63ed"/><path d="m346.184 74.671v95.253h-239.414v-95.253c0-37.098 30.073-67.172 67.172-67.172h105.071c37.098.001 67.171 30.074 67.171 67.172z" fill="#ff9bff"/><circle cx="276.875" cy="92.547" fill="#e207b9" r="10.693"/><g><path d="m249.119 128.868h-45.284c-4.143 0-7.5-3.358-7.5-7.5s3.357-7.5 7.5-7.5h45.284c4.143 0 7.5 3.358 7.5 7.5s-3.357 7.5-7.5 7.5z" fill="#e207b9"/></g><g fill="#e207b9"><circle cx="176.079" cy="92.547" r="10.693"/><path d="m338.057 0c-19.419 0-149.493 0-164.116 0-41.174 0-74.671 33.498-74.671 74.671v95.253c0 4.142 3.357 7.5 7.5 7.5h239.413 59.046c4.143 0 7.5-3.358 7.5-7.5v-95.253c0-41.173-33.498-74.671-74.672-74.671zm-223.787 74.671c0-32.902 26.769-59.671 59.671-59.671h105.071c32.902 0 59.671 26.769 59.671 59.671v87.753h-224.413zm283.459 87.754h-44.046v-87.754c0-23.91-11.381-45.779-29.828-59.671h14.202c32.903 0 59.672 26.769 59.672 59.671z"/></g></g></svg>